# xmcd
#
# Track frame offsets:
#	182
#	15472
#	29960
#	47240
#	64145
#	81277
#	97055
#	119275
#	132555
#	147927
#	164027
#	180625
#
# Disc length: 2607 seconds
#
# Revision: 14
# Processed by: cddbd v1.5.2PL0 Copyright (c) Steve Scherf et al.
# Submitted via: EZCDAudioConverter 2.4.0.1
#
DISCID=b50a2d0c
DTITLE=Zezé Di Camargo and Luciano - Zezé Di Camargo and Luciano - Vol. 01
DYEAR=1991
DGENRE=Sertanejo
TTITLE0=Zezé Di Camargo and Luciano - É O Amor
TTITLE1=Zezé Di Camargo and Luciano - Entre Ele E Eu
TTITLE2=Zezé Di Camargo and Luciano - Rédeas Do Possante
TTITLE3=Zezé Di Camargo and Luciano - Deus
TTITLE4=Zezé Di Camargo and Luciano - A Estrela Só
TTITLE5=Zezé Di Camargo and Luciano - Pouco A Pouco
TTITLE6=Zezé Di Camargo and Luciano Feat. Fafá de Belem - Quem Sou Eu Sem Ela
TTITLE7=Zezé Di Camargo and Luciano - Eu Te Amo (And I Love Her)
TTITLE8=Zezé Di Camargo and Luciano - Quem sou eu sem ela
TTITLE9=Zezé Di Camargo and Luciano - Pra Desbotar A Saudade
TTITLE10=Zezé Di Camargo and Luciano - Em Mim Só Dá Você
TTITLE11=Zezé Di Camargo and Luciano - Quem Sabe De Mim Sou Eu
EXTD=
EXTT0=
EXTT1=
EXTT2=
EXTT3=
EXTT4=
EXTT5=
EXTT6=
EXTT7=
EXTT8=
EXTT9=
EXTT10=
EXTT11=
PLAYORDER=
